<svg width="392" height="342" viewBox="0 0 392 342" fill="none" xmlns="http://www.w3.org/2000/svg">
<path fill-rule="evenodd" clip-rule="evenodd" d="M203.066 3.69762C248.389 -3.72137 302.052 -2.56531 332.595 31.7721C362.55 65.4486 339.687 116.517 343.395 161.46C347.77 214.49 389.754 273.466 355.922 314.503C321.992 355.659 255.561 340.918 203.066 331.676C160.671 324.211 128.926 296.405 95.9298 268.727C57.7564 236.707 -3.33324 211.199 0.14205 161.46C3.62361 111.631 70.5344 98.8544 109.939 68.2192C140.936 44.1214 164.337 10.0373 203.066 3.69762Z" fill="black" fill-opacity="0.05"/>
<path d="M373.5 66.5C373.5 86.6584 358.158 106.5 338 106.5C317.842 106.5 300 89.1584 300 69C300 48.8416 312.342 33 332.5 33C352.658 33 373.5 46.3416 373.5 66.5Z" fill="#CCEEF5"/>
<circle cx="335" cy="60" r="5" fill="#8DC7CF"/>
<circle cx="316" cy="67" r="7" fill="#8DC7CF"/>
<circle cx="354.5" cy="69.5" r="10.5" fill="#8DC7CF"/>
<path fill-rule="evenodd" clip-rule="evenodd" d="M313.295 97.0197C314.409 92.4177 318.555 89 323.5 89C329.299 89 334 93.701 334 99.5C334 101.932 333.173 104.171 331.786 105.951C324.905 104.73 318.514 101.541 313.295 97.0197Z" fill="#8DC7CF"/>
<path fill-rule="evenodd" clip-rule="evenodd" d="M333.5 48C339.299 48 344 43.299 344 37.5C344 36.3843 343.826 35.3092 343.504 34.3004C339.901 33.4468 336.189 33 332.5 33C329.315 33 326.325 33.3954 323.549 34.1407C323.193 35.1954 323 36.3252 323 37.5C323 43.299 327.701 48 333.5 48Z" fill="#8DC7CF"/>
<circle cx="72.4849" cy="98.6512" r="43.6512" fill="#B0CEE1"/>
<path d="M93.2995 62.8572C91.9079 62.8572 90.587 62.5296 89.2314 62.2215C87.4026 61.8059 85.7202 61.6177 83.8602 61.4111C80.4939 61.037 75.2931 60.3004 72.5774 63.0161C70.7869 64.8066 71.0508 69.8662 72.9906 71.3749C74.9343 72.8866 77.0929 74.2361 79.4265 75.0139C81.2552 75.6235 83.5998 76.1133 85.2268 77.1593C88.0178 78.9535 90.7252 82.4072 90.7252 85.8835C90.7252 89.5637 92.0646 94.57 87.8488 96.4671C79.9802 100.008 70.6216 95.0633 63.3287 92.383C59.4504 90.9577 55.112 90.004 50.9812 89.761C49.1708 89.6545 47.2961 89.2168 46.7383 91.2389C45.1621 96.9525 52.329 101.471 56.4001 103.761C61.7602 106.776 67.3316 109.138 71.5445 113.773C72.7809 115.133 73.5546 116.714 74.4049 118.333C74.9849 119.438 75.851 120.751 75.851 122.068C75.851 123.674 74.4987 124.29 73.0541 124.579C67.7733 125.635 62.1725 123.182 57.1947 121.782C52.5123 120.465 47.6832 119.493 42.8132 119.493C41.754 119.493 40.9121 119.243 40.4454 120.352C40.0131 121.378 40.2535 123.55 40.9698 124.356C43.9808 127.743 48.4117 130.372 52.332 132.588C53.892 133.47 55.1613 134.225 56.5591 135.369C57.7267 136.324 58.4907 137.602 59.5466 138.658" stroke="#48497E" stroke-width="3" stroke-linecap="round"/>
<path fill-rule="evenodd" clip-rule="evenodd" d="M114.184 111.65C114.866 109.33 115.361 106.931 115.651 104.468C134.891 114.4 146.649 123.709 144.812 128.685C142.939 133.757 127.41 133.071 105.695 127.85C105.679 127.869 105.663 127.888 105.647 127.907C94.2796 125.159 81.2357 121.177 67.5786 116.134C52.9969 110.75 39.7322 104.901 28.906 99.2676C28.9166 96.455 29.1933 93.7051 29.7122 91.0417C37.2913 96.6369 51.7814 103.848 68.9886 110.202C85.5163 116.305 100.653 120.177 110.149 121.07C110.169 121.036 110.188 121.003 110.207 120.969C115.78 121.46 119.341 120.895 119.998 119.116C120.634 117.393 118.46 114.764 114.184 111.65ZM0.188196 75.2829C1.95949 70.4859 15.9485 70.8396 35.833 75.3096C34.5061 77.322 33.3413 79.4507 32.3572 81.6772C27.5479 81.3855 24.4958 81.9955 23.8925 83.6292C23.2687 85.3187 25.3465 87.8779 29.457 90.9124C28.9382 93.5756 28.6616 96.3255 28.6509 99.138C9.82564 89.3426 -1.62705 80.1989 0.188196 75.2829Z" fill="#AEDFEB"/>
<path d="M391.5 245C391.5 280.07 307.202 296 210 296C112.798 296 28 280.07 28 245C28 209.93 112.798 176 210 176C307.202 176 391.5 209.93 391.5 245Z" fill="#FFD7DA"/>
<ellipse cx="214.5" cy="205" rx="114.5" ry="26" fill="#FFF2F3"/>
<path fill-rule="evenodd" clip-rule="evenodd" d="M126.065 206.575C127.864 159.009 166.993 121 215 121C263.007 121 302.136 159.009 303.935 206.575C278.315 211.273 247.781 214 215 214C182.219 214 151.685 211.273 126.065 206.575Z" fill="#FFA5AE"/>
<path d="M189 182.5C189 168.417 200.417 157 214.5 157V157C228.583 157 240 168.417 240 182.5V214H189V182.5Z" fill="#E5E5FF"/>
<circle cx="219.5" cy="185.5" r="14.5" fill="white"/>
<circle cx="223.5" cy="184.5" r="4.5" fill="#3606A3"/>
<path fill-rule="evenodd" clip-rule="evenodd" d="M215 205C215 206.104 216.567 207 218.5 207C220.433 207 222 206.104 222 205H215Z" fill="#0C009C"/>
<path fill-rule="evenodd" clip-rule="evenodd" d="M112 289.471C112 289.48 112 289.49 112 289.5C112 297.784 162.01 311 220 311C277.99 311 326 297.784 326 289.5C326 288.433 325.204 287.5 323.692 286.684C292.162 292.983 252.303 296 210 296C174.504 296 140.662 293.876 112 289.471Z" fill="#FFA5AE"/>
<path d="M273.389 75.0413L275.672 74.2803L276.304 72L277.194 74.2803L279.478 75.0413L277.194 75.8023L276.563 78.0826L275.672 75.8023L273.389 75.0413Z" fill="#253648"/>
<path d="M113.389 118.421L116.708 117.315L117.626 114L118.92 117.315L122.239 118.421L118.92 119.527L118.002 122.842L116.708 119.527L113.389 118.421Z" fill="#253648"/>
<path d="M151.389 93.177L156.777 91.3812L158.267 86.0002L160.368 91.3812L165.756 93.177L160.368 94.9728L158.878 100.354L156.777 94.9728L151.389 93.177Z" fill="#253648"/>
<path d="M43.3893 161.148L47.254 159.86L48.3233 156L49.8305 159.86L53.6952 161.148L49.8305 162.437L48.7612 166.297L47.254 162.437L43.3893 161.148Z" fill="#253648"/>
<path d="M109.389 158.721L112.182 157.79L112.955 155L114.044 157.79L116.837 158.721L114.044 159.652L113.272 162.441L112.182 159.652L109.389 158.721Z" fill="#253648"/>
<path d="M292.501 114.149L297.824 112.374L299.296 107.058L301.372 112.374L306.695 114.149L301.372 115.923L299.899 121.239L297.824 115.923L292.501 114.149Z" fill="#253648"/>
<path d="M347.389 175.091L351.175 173.829L352.222 170.048L353.699 173.829L357.484 175.091L353.699 176.353L352.651 180.134L351.175 176.353L347.389 175.091Z" fill="#253648"/>
<path d="M305.389 160.041L307.672 159.28L308.304 157L309.194 159.28L311.478 160.041L309.194 160.802L308.563 163.083L307.672 160.802L305.389 160.041Z" fill="#253648"/>
<path d="M236.389 77.0911L241.712 75.3167L243.185 70.0002L245.261 75.3167L250.584 77.0911L245.261 78.8654L243.788 84.1819L241.712 78.8654L236.389 77.0911Z" fill="#253648"/>
<path d="M188.664 213.664C188.664 205.396 189.676 197.31 189.676 189.043C189.676 184.034 188.623 177.667 190.687 173.023C191.914 170.263 194.11 168.044 195.484 165.434C196.7 163.124 200.336 161.76 202.492 160.713C208.042 158.017 214.86 158.014 220.892 158.014C223.104 158.014 225.624 159.634 227.3 160.975C230.036 163.164 231.917 166.192 234.364 168.638C235.95 170.225 237.815 172.743 238.317 174.878C239.145 178.393 239.494 182.058 239.592 185.671C239.746 191.371 241.278 197.07 241.278 202.703C241.278 206.245 240.941 209.545 240.941 212.989" stroke="#48497E" stroke-width="3" stroke-linecap="round"/>
</svg>
