<svg width="470" height="434" viewBox="0 0 470 434" fill="none" xmlns="http://www.w3.org/2000/svg">
<path fill-rule="evenodd" clip-rule="evenodd" d="M288.611 34.4794C343.629 46.4647 376.692 93.1779 406.145 135.817C431.637 172.723 446.525 213.39 441.046 255.164C435.493 297.5 413.204 335.736 376.365 362.847C336.718 392.024 286.628 416.897 234.309 407.309C183.182 397.94 157.251 351.467 122.999 316.416C84.8481 277.375 25.8077 244.923 26.6563 194.809C27.5426 142.475 78.7609 104.603 127.087 75.0255C174.326 46.1128 230.899 21.9071 288.611 34.4794Z" fill="white"/>
<path d="M418.109 205C418.109 240.07 333.811 256 236.609 256C139.407 256 54.6089 240.07 54.6089 205C54.6089 169.93 139.407 136 236.609 136C333.811 136 418.109 169.93 418.109 205Z" fill="#CCD7FF"/>
<ellipse cx="241.109" cy="165" rx="114.5" ry="26" fill="#E5EBFF"/>
<path fill-rule="evenodd" clip-rule="evenodd" d="M152.674 166.575C154.473 119.009 193.602 80.9998 241.609 80.9998C289.616 80.9998 328.745 119.009 330.544 166.575C304.924 171.273 274.39 174 241.609 174C208.828 174 178.294 171.273 152.674 166.575Z" fill="#7FA2FF"/>
<path d="M215.609 142.5C215.609 128.416 227.026 117 241.109 117V117C255.192 117 266.609 128.416 266.609 142.5V174H215.609V142.5Z" fill="#E5E5FF"/>
<circle cx="246.109" cy="145.5" r="14.5" fill="white"/>
<circle cx="250.109" cy="144.5" r="4.5" fill="#3606A3"/>
<path fill-rule="evenodd" clip-rule="evenodd" d="M241.609 165C241.609 166.104 243.176 167 245.109 167C247.042 167 248.609 166.104 248.609 165H241.609Z" fill="#0C009C"/>
<path fill-rule="evenodd" clip-rule="evenodd" d="M138.609 249.47C138.609 249.48 138.609 249.49 138.609 249.5C138.609 257.784 188.619 271 246.609 271C304.599 271 352.609 257.784 352.609 249.5C352.609 248.433 351.812 247.5 350.301 246.683C318.771 252.983 278.912 256 236.609 256C201.113 256 167.271 253.875 138.609 249.47Z" fill="#7FA2FF"/>
</svg>
